<svg width="226" height="52" viewBox="0 0 226 52" fill="none" xmlns="http://www.w3.org/2000/svg">
<path d="M25.1045 38.4219C25.1045 35.9382 24.4323 34.0355 23.0879 32.7139C21.7435 31.3923 19.3167 30.1048 15.8076 28.8516C12.2985 27.5983 9.6097 26.2881 7.74121 24.9209C5.89551 23.5309 4.50553 21.9587 3.57129 20.2041C2.65983 18.4268 2.2041 16.3988 2.2041 14.1201C2.2041 10.1781 3.51432 6.93099 6.13477 4.37891C8.77799 1.82682 12.2301 0.550781 16.4912 0.550781C19.4079 0.550781 22.0055 1.21159 24.2842 2.5332C26.5628 3.83203 28.3174 5.64355 29.5479 7.96777C30.7783 10.292 31.3936 12.8441 31.3936 15.624H25.1045C25.1045 12.5479 24.3639 10.1667 22.8828 8.48047C21.4017 6.79427 19.2712 5.95117 16.4912 5.95117C13.9619 5.95117 12.0023 6.65755 10.6123 8.07031C9.22233 9.48307 8.52734 11.4655 8.52734 14.0176C8.52734 16.1139 9.2793 17.8685 10.7832 19.2812C12.2871 20.694 14.6113 21.9587 17.7559 23.0752C22.6549 24.693 26.1527 26.6868 28.249 29.0566C30.3682 31.4264 31.4277 34.5254 31.4277 38.3535C31.4277 42.3867 30.1175 45.6224 27.4971 48.0605C24.8766 50.4759 21.3105 51.6836 16.7988 51.6836C13.9049 51.6836 11.2275 51.057 8.7666 49.8037C6.32845 48.5277 4.40299 46.7503 2.99023 44.4717C1.60026 42.1702 0.905273 39.5384 0.905273 36.5762H7.19434C7.19434 39.6523 8.04883 42.0449 9.75781 43.7539C11.4896 45.4629 13.8366 46.3174 16.7988 46.3174C19.556 46.3174 21.6296 45.611 23.0195 44.1982C24.4095 42.7855 25.1045 40.86 25.1045 38.4219ZM46.7402 5.0625V14.0176H52.3115V18.9053H46.7402V41.8398C46.7402 43.2982 46.9795 44.4033 47.458 45.1553C47.9365 45.9072 48.7568 46.2832 49.9189 46.2832C50.7165 46.2832 51.5254 46.1465 52.3457 45.873L52.2773 51C50.9102 51.4557 49.5088 51.6836 48.0732 51.6836C45.6807 51.6836 43.8577 50.8291 42.6045 49.1201C41.3512 47.4111 40.7246 44.9958 40.7246 41.874V18.9053H35.085V14.0176H40.7246V5.0625H46.7402ZM78.5615 51C78.1969 50.2025 77.9349 48.8581 77.7754 46.9668C75.6335 50.1113 72.8991 51.6836 69.5723 51.6836C66.2227 51.6836 63.6022 50.7493 61.7109 48.8809C59.8424 46.9896 58.9082 44.335 58.9082 40.917C58.9082 37.1572 60.1842 34.1722 62.7363 31.9619C65.2884 29.7516 68.7861 28.6237 73.2295 28.5781H77.6729V24.6475C77.6729 22.4372 77.1829 20.8649 76.2031 19.9307C75.2233 18.9964 73.7308 18.5293 71.7256 18.5293C69.9027 18.5293 68.4215 19.0762 67.2822 20.1699C66.1429 21.2409 65.5732 22.6081 65.5732 24.2715H59.5234C59.5234 22.3802 60.0817 20.5801 61.1982 18.8711C62.3148 17.1393 63.8187 15.7835 65.71 14.8037C67.6012 13.8239 69.709 13.334 72.0332 13.334C75.8158 13.334 78.6868 14.2796 80.6465 16.1709C82.6289 18.0394 83.6429 20.7738 83.6885 24.374V43.0361C83.7113 45.8844 84.0986 48.3568 84.8506 50.4531V51H78.5615ZM70.4951 46.1807C71.9762 46.1807 73.389 45.7705 74.7334 44.9502C76.0778 44.1299 77.0576 43.1045 77.6729 41.874V33.0557H74.2549C71.3838 33.1012 69.1165 33.7507 67.4531 35.0039C65.7897 36.2344 64.958 37.9661 64.958 40.1992C64.958 42.2956 65.3796 43.8223 66.2227 44.7793C67.0658 45.7135 68.4899 46.1807 70.4951 46.1807ZM108.366 19.6914C107.523 19.5319 106.612 19.4521 105.632 19.4521C102.533 19.4521 100.368 21.1497 99.1377 24.5449V51H93.0879V14.0176H98.9668L99.0693 17.7773C100.687 14.8151 102.977 13.334 105.939 13.334C106.896 13.334 107.694 13.4935 108.332 13.8125L108.366 19.6914ZM123.337 1.23438L136.325 41.8398L149.313 1.23438H157.38V51H151.125V31.6201L151.706 12.2061L138.684 51H133.898L120.944 12.3428L121.525 31.6201V51H115.271V1.23438H123.337ZM186.364 51C186 50.2025 185.738 48.8581 185.578 46.9668C183.436 50.1113 180.702 51.6836 177.375 51.6836C174.025 51.6836 171.405 50.7493 169.514 48.8809C167.645 46.9896 166.711 44.335 166.711 40.917C166.711 37.1572 167.987 34.1722 170.539 31.9619C173.091 29.7516 176.589 28.6237 181.032 28.5781H185.476V24.6475C185.476 22.4372 184.986 20.8649 184.006 19.9307C183.026 18.9964 181.534 18.5293 179.528 18.5293C177.705 18.5293 176.224 19.0762 175.085 20.1699C173.946 21.2409 173.376 22.6081 173.376 24.2715H167.326C167.326 22.3802 167.884 20.5801 169.001 18.8711C170.118 17.1393 171.621 15.7835 173.513 14.8037C175.404 13.8239 177.512 13.334 179.836 13.334C183.618 13.334 186.49 14.2796 188.449 16.1709C190.432 18.0394 191.446 20.7738 191.491 24.374V43.0361C191.514 45.8844 191.901 48.3568 192.653 50.4531V51H186.364ZM178.298 46.1807C179.779 46.1807 181.192 45.7705 182.536 44.9502C183.881 44.1299 184.86 43.1045 185.476 41.874V33.0557H182.058C179.187 33.1012 176.919 33.7507 175.256 35.0039C173.592 36.2344 172.761 37.9661 172.761 40.1992C172.761 42.2956 173.182 43.8223 174.025 44.7793C174.868 45.7135 176.293 46.1807 178.298 46.1807ZM206.599 14.0176L206.77 18.0166C209.117 14.8949 212.113 13.334 215.759 13.334C222.299 13.334 225.614 17.6976 225.705 26.4248V51H219.689V26.6982C219.689 23.8044 219.2 21.7536 218.22 20.5459C217.263 19.3154 215.816 18.7002 213.879 18.7002C212.375 18.7002 211.019 19.2015 209.812 20.2041C208.627 21.2067 207.67 22.5169 206.94 24.1348V51H200.891V14.0176H206.599Z" fill="url(#paint0_linear)"/>
<defs>
<linearGradient id="paint0_linear" x1="114.5" y1="-14" x2="114.5" y2="68" gradientUnits="userSpaceOnUse">
<stop stop-color="#EEEEEE"/>
<stop offset="0.538094" stop-color="#EEEEEE"/>
<stop offset="0.538194" stop-color="#DA4444"/>
<stop offset="1" stop-color="#DA4444"/>
</linearGradient>
</defs>
</svg>
