<svg width="58" height="163" viewBox="0 0 58 163" fill="none" xmlns="http://www.w3.org/2000/svg">
<path d="M12.255 150.755C16.169 142.406 18.4135 131.24 18.4135 120.12L18.4135 47.5537C20.0785 46.2958 21.4561 44.8649 22.4777 43.3065V95.734C30.1625 58.4333 57.0242 55.9556 57.0242 24.6098V24.609L24.5099 24.609V20.5448L57.0242 20.5448C57.0242 13.8107 49.7455 8.3519 40.767 8.3519L24.5099 8.3519C24.5099 2.45945 21.9616 0.223328 18.4135 0.223328L8.25274 0.223328C4.70081 0.223328 2.15632 2.46351 2.15632 8.3519H-1.90797C-1.90797 2.45945 -4.45628 0.223328 -8.0044 0.223328L-18.1651 0.223328C-21.717 0.223328 -24.2615 2.46351 -24.2615 8.3519L-40.5187 8.3519C-49.4972 8.3519 -56.7758 13.8107 -56.7758 20.5448L-24.2615 20.5448V24.609L-56.7758 24.609V24.6098C-56.7758 55.9556 -29.9142 58.4333 -22.2294 95.734L-22.2294 43.3063C-21.2077 44.8647 -19.8302 46.2956 -18.1651 47.5535L-18.1651 120.12C-18.1651 131.24 -15.9206 142.406 -12.0067 150.755C-8.47306 158.294 -3.93808 162.795 0.124173 162.795C4.18643 162.795 8.72141 158.294 12.255 150.755ZM-10.0365 124.184C-10.0365 123.645 -9.82244 123.128 -9.44134 122.747C-9.06024 122.366 -8.54336 122.152 -8.0044 122.152H8.25274C8.7917 122.152 9.30859 122.366 9.68969 122.747C10.0708 123.128 10.2849 123.645 10.2849 124.184C10.2849 132.29 -10.0365 132.298 -10.0365 124.184Z" fill="#EEEEEE"/>
</svg>
