<svg width="114" height="163" viewBox="0 0 114 163" fill="none" xmlns="http://www.w3.org/2000/svg">
<path d="M44.7691 12.0394C40.8552 20.3887 38.6107 31.5549 38.6107 42.675L38.6107 115.241C36.9456 116.499 35.5681 117.93 34.5464 119.488L34.5464 67.0607C26.8616 104.361 0 106.839 0 138.185L0 138.186H32.5143V142.25H0C0 148.984 7.27863 154.443 16.2571 154.443H32.5143C32.5143 160.335 35.0626 162.571 38.6107 162.571H48.7714C52.3234 162.571 54.8679 160.331 54.8679 154.443H58.9321C58.9321 160.335 61.4805 162.571 65.0286 162.571H75.1893C78.7412 162.571 81.2857 160.331 81.2857 154.443H97.5429C106.521 154.443 113.8 148.984 113.8 142.25H81.2857V138.186H113.8V138.185C113.8 106.839 86.9384 104.361 79.2536 67.0607V119.488C78.2319 117.93 76.8544 116.499 75.1893 115.241L75.1893 42.675C75.1893 31.5549 72.9448 20.3887 69.0309 12.0394C65.4972 4.50068 60.9623 -7.62939e-06 56.9 -7.62939e-06C52.8377 -7.62939e-06 48.3028 4.50068 44.7691 12.0394ZM67.0607 38.6107C67.0607 39.1497 66.8466 39.6666 66.4655 40.0477C66.0844 40.4288 65.5675 40.6429 65.0286 40.6429H48.7714C48.2325 40.6429 47.7156 40.4288 47.3345 40.0477C46.9534 39.6666 46.7393 39.1497 46.7393 38.6107C46.7393 30.5053 67.0607 30.4969 67.0607 38.6107Z" fill="#EEEEEE"/>
</svg>
